<svg id="Capa_1" enable-background="new 0 0 512 512" height="512" viewBox="0 0 512 512" width="512" xmlns="http://www.w3.org/2000/svg"><g><g><g><path d="m30.305 260.123h30.046v-175.771h95.048v-29.996h-125.094z" fill="#2ad7f5"/><path d="m356.034 54.356v29.996h96.051v175.771h30.045v-205.767z" fill="#3ba9ff"/><path d="m169.2 385.565h174.704v29.996h-174.704z" fill="#2ad7f5"/><path d="m256.551 385.565h87.352v29.996h-87.352z" fill="#3ba9ff"/></g></g><g><path d="m512 462.752v49.248h-138.46v-49.248c0-38.176 31.06-69.241 69.23-69.241 38.17.001 69.23 31.065 69.23 69.241z" fill="#186a81"/><path d="m512 462.752v49.248h-69.23v-118.488c38.17 0 69.23 31.064 69.23 69.24z" fill="#00465f"/><ellipse cx="442.77" cy="363.167" fill="#ffe8c8" rx="60.88" ry="60.349"/><path d="m503.65 363.167c0 33.275-27.31 60.349-60.88 60.349v-120.699c33.57 0 60.88 27.075 60.88 60.35z" fill="#ffc7a1"/></g><g><path d="m138.46 462.752v49.248h-138.46v-49.248c0-38.176 31.06-69.241 69.23-69.241 38.17.001 69.23 31.065 69.23 69.241z" fill="#00dc7b"/><path d="m138.46 462.752v49.248h-69.23v-118.488c38.17 0 69.23 31.064 69.23 69.24z" fill="#00aa8e"/><ellipse cx="69.23" cy="363.167" fill="#ffe8c8" rx="60.88" ry="60.349"/><path d="m130.11 363.167c0 33.275-27.31 60.349-60.88 60.349v-120.699c33.57 0 60.88 27.075 60.88 60.35z" fill="#ffc7a1"/></g><g><path d="m338.311 186.549v92.414h-163.52v-92.414c0-45.097 36.68-81.773 81.76-81.773 45.081 0 81.76 36.676 81.76 81.773z" fill="#ff668e"/><path d="m338.311 186.549v92.414h-81.76v-174.187c45.081 0 81.76 36.676 81.76 81.773z" fill="#e04496"/><path d="m324.561 67.391c0 37.156-30.51 67.391-68.01 67.391-37.51 0-68.02-30.235-68.02-67.391s30.51-67.391 68.02-67.391c37.5 0 68.01 30.235 68.01 67.391z" fill="#ffe8c8"/><path d="m241.551 176.868h30v30.005h-30z" fill="#e04496"/><path d="m256.551 176.868h15v30.005h-15z" fill="#b22d85"/><path d="m324.561 67.391c0 37.156-30.51 67.391-68.01 67.391v-134.782c37.5 0 68.01 30.235 68.01 67.391z" fill="#ffc7a1"/></g></g></svg>