<svg id="Capa_1" enable-background="new 0 0 512 512" height="512" viewBox="0 0 512 512" width="512" xmlns="http://www.w3.org/2000/svg"><g><path d="m512 189.762c0 34.027-9.11 67.404-26.34 96.537-16.72 28.263-40.6 51.841-69.06 68.185l-9.96 5.715-84.24-84.337-170.26-170.468 5.71-9.968c16.33-28.473 39.88-52.362 68.12-69.085 29.1-17.234 62.44-26.341 96.43-26.341 104.54 0 189.6 85.128 189.6 189.762z" fill="#2ad7f5"/><path d="m512 189.762c0 34.027-9.11 67.404-26.34 96.537-16.72 28.263-40.6 51.841-69.06 68.185l-9.96 5.715-84.24-84.337v-275.862c104.54 0 189.6 85.128 189.6 189.762z" fill="#3ba9ff"/><path d="m62.82 145.567c-40.51 40.542-62.82 94.445-62.82 151.781 0 32.776 7.18 64.191 21.35 93.435v99.85h99.76c29.22 14.181 60.61 21.367 93.36 21.367l58.53-213.736-58.53-215.568c-57.29 0-111.15 22.328-151.65 62.871z" fill="#eaf4f4"/><path d="m428.94 297.348c0 57.336-22.31 111.239-62.82 151.781s-94.37 62.871-151.65 62.871v-429.304c57.28 0 111.14 22.328 151.65 62.87s62.82 94.446 62.82 151.782z" fill="#cae8ea"/><path d="m266.57 332.16c0 21.867-16.04 40.362-37.96 46.277v16.703h-30v-16.703c-21.92-5.915-37.96-24.41-37.96-46.277h30c0 10.058 10.3 18.235 22.96 18.235.29 0 .58 0 .86-.02.56-.01 1.12-.04 1.67-.09 11.48-1.001 20.43-8.747 20.43-18.124 0-9.367-8.95-17.114-20.43-18.114-.55-.05-1.11-.08-1.67-.09-.28-.02-.57-.02-.86-.02-29.21 0-52.96-21.657-52.96-48.259 0-21.867 16.04-40.362 37.96-46.277v-16.703h30v16.702c21.92 5.915 37.96 24.41 37.96 46.277h-30c0-9.378-8.95-17.124-20.43-18.124-.55-.05-1.11-.08-1.67-.09-.28-.02-.57-.02-.86-.02-12.66 0-22.96 8.176-22.96 18.235 0 10.048 10.3 18.235 22.96 18.235.29 0 .57 0 .86.01.56 0 1.11.02 1.67.04 28.03 1.209 50.43 22.366 50.43 48.197z" fill="#00dc7b"/><g fill="#00aa8e"><path d="m266.57 332.16c0 21.867-16.04 40.362-37.96 46.277v16.703h-14.14v-44.766c.56-.01 1.12-.04 1.67-.09 11.48-1.001 20.43-8.747 20.43-18.124 0-9.367-8.95-17.114-20.43-18.114-.55-.05-1.11-.08-1.67-.09v-30.034c.56 0 1.11.02 1.67.04 28.03 1.21 50.43 22.367 50.43 48.198z"/><path d="m216.14 247.552c-.55-.05-1.11-.08-1.67-.09v-44.766h14.14v16.704c21.92 5.915 37.96 24.41 37.96 46.277h-30c0-9.378-8.95-17.124-20.43-18.125z"/></g></g></svg>