<svg id="Capa_1" enable-background="new 0 0 512 512" height="512" viewBox="0 0 512 512" width="512" xmlns="http://www.w3.org/2000/svg"><g><path d="m31.125 141.021v310.963l89.75.096v-311.06z" fill="#cae8ea"/><g><path d="m31.125 141.02h89.75v78.079h-89.75z" fill="#00dc7b"/></g><path d="m390.625 141.02v311.06l90.25-.096v-310.964z" fill="#b3d6e0"/><g><path d="m390.625 141.02h90.25v78.079h-90.25z" fill="#00aa8e"/></g><path d="m0 432h512v80h-512z" fill="#186a81"/><path d="m308.96 328.8c0 21.84-16.04 40.33-37.96 46.23v16.7h-30v-16.7c-21.92-5.9-37.96-24.39-37.96-46.23h30c0 10.04 10.3 18.22 22.96 18.22s22.96-8.18 22.96-18.22c0-10.05-10.3-18.22-22.96-18.22-29.2 0-52.96-21.63-52.96-48.22 0-21.84 16.04-40.33 37.96-46.23v-16.7h30v16.7c21.92 5.9 37.96 24.39 37.96 46.23h-30c0-10.04-10.3-18.21-22.96-18.21s-22.96 8.17-22.96 18.21c0 10.05 10.3 18.22 22.96 18.22 29.2 0 52.96 21.63 52.96 48.22z" fill="#00dc7b"/><path d="m512 83.2v75.9h-512v-75.9l256-83.2z" fill="#eaf4f4"/><path d="m216.67 79.1h78.66v30h-78.66z" fill="#ffe26f"/><path d="m308.96 328.8c0 21.84-16.04 40.33-37.96 46.23v16.7h-15v-44.71c12.66 0 22.96-8.18 22.96-18.22 0-10.05-10.3-18.22-22.96-18.22v-30c29.2 0 52.96 21.63 52.96 48.22z" fill="#00aa8e"/><path d="m256 244.15v-44.72h15v16.7c21.92 5.9 37.96 24.39 37.96 46.23h-30c0-10.04-10.3-18.21-22.96-18.21z" fill="#00aa8e"/><path d="m512 83.2v75.9h-256v-159.1z" fill="#cae8ea"/><path d="m256 79.1h39.33v30h-39.33z" fill="#ffc271"/><path d="m256 432h256v80h-256z" fill="#00465f"/></g></svg>