<svg id="Capa_1" enable-background="new 0 0 512 512" height="512" viewBox="0 0 512 512" width="512" xmlns="http://www.w3.org/2000/svg"><g><path d="m441.015 379.43v132.57h-370.03v-132.57c0-59.68 48.52-108.24 108.16-108.24h153.72c59.64 0 108.15 48.56 108.15 108.24z" fill="#2ad7f5"/><path d="m441.015 379.43v132.57h-185.01v-240.81h76.86c59.64 0 108.15 48.56 108.15 108.24z" fill="#3ba9ff"/><path d="m321.895 286.19s-22.83 55.86-65.89 94.75c-43.07-38.89-65.9-94.75-65.9-94.75z" fill="#eaf4f4"/><path d="m321.895 286.19s-22.83 55.86-65.89 94.75v-94.75z" fill="#cae8ea"/><path d="m362.955 148.97v58.18c0 58.96-47.98 106.92-106.95 106.92-58.98 0-106.96-47.96-106.96-106.92v-102.82l106.96 22.32z" fill="#ffe8c8"/><path d="m362.955 148.97v58.18c0 58.96-47.98 106.92-106.95 106.92v-187.42z" fill="#ffc7a1"/><path d="m362.955 92.37v56.6h-155.24c-50.94 0-92.38-41.44-92.38-92.37v-56.6h155.25c50.93 0 92.37 41.44 92.37 92.37z" fill="#ffc271"/><path d="m290.958 421.932h70v30h-70z" fill="#cae8ea"/><path d="m362.955 148.97h-106.95v-148.97h14.58c50.93 0 92.37 41.44 92.37 92.37z" fill="#ff9e73"/></g></svg>