<svg id="Capa_1" enable-background="new 0 0 512 512" height="512" viewBox="0 0 512 512" width="512" xmlns="http://www.w3.org/2000/svg"><g><g><path d="m434.757 277.203 2.044.592c21.26 6.155 40.396 19.28 53.884 36.956 13.944 18.276 21.315 40.113 21.315 63.151v134.098h-111.841l-29.809-234.797z" fill="#3ba9ff"/><path d="m313.054 179.682c11.036-30.298 40.184-50.655 72.53-50.655 42.474 0 77.028 34.543 77.028 77.002v38.456c0 42.459-34.555 77.002-77.028 77.002h-73.134v-140.147z" fill="#fa8"/></g><g><path d="m77.243 277.203-2.044.592c-21.26 6.155-40.396 19.28-53.884 36.956-13.944 18.276-21.315 40.113-21.315 63.151v134.098h111.649l30-234.797z" fill="#ff668e"/><path d="m198.946 179.682c-11.036-30.298-40.184-50.655-72.53-50.655-42.474 0-77.028 34.543-77.028 77.002v38.456c0 42.459 34.555 77.002 77.028 77.002h73.134v-140.147z" fill="#ffc7a1"/></g><path d="m400.16 292.06v219.94h-288.51v-219.94c0-47.36 38.5-85.88 85.82-85.88h116.87c47.32 0 85.82 38.52 85.82 85.88z" fill="#186a81"/><path d="m400.16 292.06v219.94h-144.26v-305.82h58.44c47.32 0 85.82 38.52 85.82 85.88z" fill="#00465f"/><path d="m255.9 380.94c-52.86-51.36-53.65-139.75-52.61-166.02h105.24c1.02 26.47.14 114.75-52.63 166.02z" fill="#eaf4f4"/><path d="m255.9 380.94v-166.02h52.63c1.02 26.47.14 114.75-52.63 166.02z" fill="#cae8ea"/><path d="m320.31 273.42c-7.31 50.19-25.96 91.09-53.95 118.28l-10.46 10.15-10.45-10.15c-27.99-27.19-46.65-68.07-53.95-118.2-5.42-37.14-2.82-66.31-2.71-67.54l29.88 2.77c-.09.97-7.78 92.89 37.23 149.84l.01.01c45.19-57.1 37.32-149.02 37.23-150l29.88-2.76c.11 1.22 2.71 30.43-2.71 67.6z" fill="#00465f"/><path d="m320.31 273.42c-7.31 50.19-25.96 91.09-53.95 118.28l-10.46 10.15v-43.28l.01.01c45.19-57.1 37.32-149.02 37.23-150l29.88-2.76c.11 1.22 2.71 30.43-2.71 67.6z" fill="#002c3c"/><path d="m340.81 120.45v40.64c0 46.8-38.09 84.88-84.91 84.88s-84.91-38.08-84.91-84.88v-75.47l84.91 17.42z" fill="#ffe8c8"/><path d="m340.81 120.45v40.64c0 46.8-38.09 84.88-84.91 84.88v-142.93z" fill="#ffc7a1"/><path d="m340.81 59.92v60.53h-135.52c-33.04 0-59.92-26.88-59.92-59.92v-60.53h135.52c33.04 0 59.92 26.88 59.92 59.92z" fill="#ffc271"/><path d="m340.81 120.45h-84.91v-120.45h24.99c33.04 0 59.92 26.88 59.92 59.92z" fill="#ff9e73"/></g></svg>