<svg id="Capa_1" enable-background="new 0 0 512 512" height="512" viewBox="0 0 512 512" width="512" xmlns="http://www.w3.org/2000/svg"><g><path d="m439.496 253.67h-30v44.49h-138.5v-223.16h-30v223.16h-138.5v-44.49h-30v74.49h168.5v109.34h30v-109.34h168.5z" fill="#fff4b0"/><path d="m439.496 253.67v74.49h-168.5v109.34h-15.24v-362.5h15.24v223.16h138.5v-44.49z" fill="#ffe26f"/><path d="m134.996 422.5h242v74.5h-242z" fill="#ffc271"/><path d="m255.756 422.5h121.24v74.5h-121.24z" fill="#ff9e73"/><path d="m300.996 45c0 24.81-20.18 45-45 45h-.24c-24.7-.13-44.76-20.27-44.76-45s20.06-44.87 44.76-45h.24c24.82 0 45 20.19 45 45z" fill="#ffc271"/><g><g><path d="m11.259 161.667 13.897 107h123.688l13.897-107z" fill="#ffe26f"/><g><path d="m0 161.667h174v30h-174z" fill="#fff4b0"/></g></g><path d="m349.259 161.667 13.897 107h123.688l13.897-107z" fill="#ffc271"/><g><path d="m338 161.667h174v30h-174z" fill="#ffe26f"/></g></g><g><path d="m106.996 482h298v30h-298z" fill="#fff4b0"/></g><path d="m300.996 45c0 24.81-20.18 45-45 45h-.24v-90h.24c24.82 0 45 20.19 45 45z" fill="#ff9e73"/><path d="m255.756 482h149.24v30h-149.24z" fill="#ffe26f"/></g></svg>