<svg id="Capa_1" enable-background="new 0 0 512 512" height="512" viewBox="0 0 512 512" width="512" xmlns="http://www.w3.org/2000/svg"><g><path d="m459 28.55v367.43l-116.5 116.02h-289.5v-483.45z" fill="#eaf4f4"/><path d="m459 28.55v367.43l-116.5 116.02h-87.5v-483.45z" fill="#cae8ea"/><path d="m167.25 0h177.5v90.04h-177.5z" fill="#186a81"/><path d="m342.5 395.98v116.02h21.693l94.807-94.807v-21.213z" fill="#b3d6e0"/><path d="m255 0h89.75v90.04h-89.75z" fill="#00465f"/><path d="m316.5 331.4c0 26.06-19.82 48-46.5 54.09v23.15h-30v-23.15c-26.68-6.09-46.5-28.03-46.5-54.09h30c0 14.21 14.13 25.77 31.5 25.77s31.5-11.56 31.5-25.77c0-14.2-14.13-25.76-31.5-25.76-33.91 0-61.5-25.02-61.5-55.77 0-26.06 19.82-47.99 46.5-54.08v-23.15h30v23.15c26.68 6.09 46.5 28.02 46.5 54.08h-30c0-14.21-14.13-25.76-31.5-25.76s-31.5 11.55-31.5 25.76 14.13 25.77 31.5 25.77c33.91 0 61.5 25.01 61.5 55.76z" fill="#00dc7b"/><g fill="#00aa8e"><path d="m316.5 331.4c0 26.06-19.82 48-46.5 54.09v23.15h-15v-51.47c17.37 0 31.5-11.56 31.5-25.77 0-14.2-14.13-25.76-31.5-25.76v-30c33.91 0 61.5 25.01 61.5 55.76z"/><path d="m255 224.11v-51.47h15v23.15c26.68 6.09 46.5 28.02 46.5 54.08h-30c0-14.21-14.13-25.76-31.5-25.76z"/></g></g></svg>