<svg id="Capa_1" enable-background="new 0 0 512 512" height="512" viewBox="0 0 512 512" width="512" xmlns="http://www.w3.org/2000/svg"><g><path d="m333.71 339-15 90h-125.42l-15-90z" fill="#186a81"/><path d="m333.71 339-15 90h-62.7v-90z" fill="#00465f"/><path d="m67.5 237.614v123.226l108-41.538v-164.765z" fill="#ff668e"/><path d="m336.5 154.537v164.765l108 41.538v-123.226z" fill="#e04496"/><path d="m366.5 102.54v266.46h-221v-266.46l66.87-102.54h87.26z" fill="#eaf4f4"/><path d="m366.5 102.54v266.46h-110.49v-369h43.62z" fill="#cae8ea"/><circle cx="256" cy="168" fill="#2ad7f5" r="45"/><g><path d="m241 458.33h30v53.67h-30z" fill="#ffe26f"/></g><g><path d="m181 474.333h30v37.667h-30z" fill="#ffe26f"/></g><g><path d="m301.333 474.333h30v37.667h-30z" fill="#ffc271"/></g><g><path d="m212.77 240.49h86.46v30h-86.46z" fill="#cae8ea"/></g><path d="m256 458.33h15v53.67h-15z" fill="#ffc271"/><path d="m256 213v-90c24.81 0 45 20.19 45 45s-20.19 45-45 45z" fill="#3ba9ff"/><path d="m256 240.49h43.23v30h-43.23z" fill="#b3d6e0"/></g></svg>