<svg id="Capa_1" enable-background="new 0 0 512 512" height="512" viewBox="0 0 512 512" width="512" xmlns="http://www.w3.org/2000/svg"><g><g><path d="m241 370h30v67h-30z" fill="#eaf4f4"/></g><path d="m255.67 370h15.33v67h-15.33z" fill="#cae8ea"/><path d="m301 467c0 24.81-20.19 45-45 45h-.33c-24.66-.18-44.67-20.3-44.67-45s20.01-44.82 44.67-45h.33c24.81 0 45 20.19 45 45z" fill="#186a81"/><path d="m20 50h472v325h-472z" fill="#eaf4f4"/><path d="m255.85 50h236.15v325h-236.15z" fill="#cae8ea"/><path d="m0 0h512v80h-512z" fill="#186a81"/><g><path d="m0 355h512v30h-512z" fill="#cae8ea"/></g><path d="m256 0h256v80h-256z" fill="#00465f"/><path d="m301 467c0 24.81-20.19 45-45 45h-.33v-90h.33c24.81 0 45 20.19 45 45z" fill="#00465f"/><path d="m255.67 355h256.33v30h-256.33z" fill="#b3d6e0"/><g><path d="m275.67 215.43c0 21.42-7.35 41.13-19.67 56.74-16.78 21.27-42.79 34.92-71.99 34.92-50.62 0-91.65-41.03-91.65-91.66 0-50.62 41.03-91.65 91.65-91.65v91.65z" fill="#00dc7b"/></g><g fill="#b3d6e0"><path d="m325.131 140.61h77.5v30h-77.5z"/><path d="m325.131 200.435h77.5v30h-77.5z"/><path d="m325.131 260.259h77.5v30h-77.5z"/></g><path d="m275.67 215.43c0 21.42-7.35 41.13-19.67 56.74v-56.74z" fill="#00aa8e"/></g></svg>