<svg id="Capa_1" enable-background="new 0 0 512 512" height="512" viewBox="0 0 512 512" width="512" xmlns="http://www.w3.org/2000/svg"><g><g><g><path d="m512 204.61v38.82l-256 191.31-.11.08-255.89-191.39v-38.82l70.85-54.5h370.3z" fill="#186a81"/></g><path d="m512 204.61v38.82l-256 191.31v-284.63h185.15z" fill="#00465f"/><g><path d="m447 0v298.184l-190.88 126.29-.12-.08-191-126.25v-298.144z" fill="#eaf4f4"/></g><path d="m447 0v298.184l-190.88 126.29-.12-.08v-424.394z" fill="#cae8ea"/><g><path d="m512 273.43v238.57h-512v-268.57l255.89 161.39.23.15z" fill="#ffe26f"/></g><path d="m512 243.43v268.57h-256.11v-107.18l.23.15z" fill="#ffc271"/></g><path d="m317.21 238.77c0 26.06-19.81 47.99-46.5 54.08v23.15h-30v-23.15c-26.68-6.09-46.5-28.02-46.5-54.08h30c0 14.2 14.14 25.76 31.5 25.76.1 0 .19 0 .29-.01 17.24-.12 31.21-11.63 31.21-25.75 0-14.13-13.97-25.64-31.21-25.76-.1-.01-.19-.01-.29-.01-33.91 0-61.5-25.02-61.5-55.77 0-26.06 19.82-47.99 46.5-54.08v-23.15h30v23.15c26.69 6.09 46.5 28.02 46.5 54.08h-30c0-14.12-13.97-25.63-31.21-25.75-.1-.01-.19-.01-.29-.01-17.36 0-31.5 11.56-31.5 25.76 0 14.21 14.14 25.77 31.5 25.77h.29c33.79.14 61.21 25.11 61.21 55.77z" fill="#00dc7b"/><g fill="#00aa8e"><path d="m317.21 238.77c0 26.06-19.81 47.99-46.5 54.08v23.15h-14.71v-51.48c17.24-.12 31.21-11.63 31.21-25.75 0-14.13-13.97-25.64-31.21-25.76v-30.01c33.79.14 61.21 25.11 61.21 55.77z"/><path d="m256 131.48v-51.48h14.71v23.15c26.69 6.09 46.5 28.02 46.5 54.08h-30c0-14.12-13.97-25.63-31.21-25.75z"/></g></g></svg>