<svg id="Capa_1" enable-background="new 0 0 512 512" height="512" viewBox="0 0 512 512" width="512" xmlns="http://www.w3.org/2000/svg"><g><g><path d="m512 116.34v339.47h-456.83v-83.1l170.75-116.1 206.3-140.27z" fill="#00aa8e"/><path d="m512 116.34v339.47h-286.08v-199.2l206.3-140.27z" fill="#00767a"/><path d="m451.83 115.94-20 45 20 45v189.71h-451.83v-189.71l20-45-20-45v-59.75h451.83z" fill="#00dc7b"/><path d="m451.83 115.94-20 45 20 45v189.71h-225.91v-339.46h225.91z" fill="#00aa8e"/><path d="m0 115.94h451.83v90h-451.83z" fill="#186a81"/><path d="m311.608 233.526h30v126.086h-30z" fill="#eaf4f4" transform="matrix(.004 -1 1 .004 28.76 622.011)"/><path d="m225.92 115.94h225.91v90h-225.91z" fill="#00465f"/></g><g fill="#eaf4f4"><path d="m138.565 281.322h30v30h-30z"/><path d="m78.565 281.322h30v30h-30z"/></g></g></svg>