<svg id="Capa_1" enable-background="new 0 0 512 512" height="512" viewBox="0 0 512 512" width="512" xmlns="http://www.w3.org/2000/svg"><g><path d="m343 0v75h-30v-45h-114v45h-30v-75z" fill="#ffe26f"/><path d="m343 0v75h-30v-45h-58v-30z" fill="#ffc271"/><path d="m482 197v231l-227 40-225-40v-231z" fill="#eaf4f4"/><path d="m482 197v231l-227 40v-271z" fill="#cae8ea"/><g><path d="m30 428h452v84h-452z" fill="#186a81"/></g><path d="m0 60h512v167h-512z" fill="#186a81"/><path d="m255 60h257v167h-257z" fill="#00465f"/><path d="m255 428h227v84h-227z" fill="#00465f"/><path d="m195 152h120v120h-120z" fill="#ffe26f"/><path d="m255 152h60v120h-60z" fill="#ffc271"/><path d="m240 197h30v30h-30z" fill="#ffc271"/><path d="m255 197h15v30h-15z" fill="#ff9e73"/></g></svg>