<svg id="Capa_1" enable-background="new 0 0 512 512" height="512" viewBox="0 0 512 512" width="512" xmlns="http://www.w3.org/2000/svg"><g><path d="m406 0v295.97l-65.89 65.92-84.11 20-84.11-20-65.89-65.92v-295.97z" fill="#ffe26f"/><path d="m406 0v295.97l-65.89 65.92-84.11 20v-381.89z" fill="#ffc271"/><path d="m308.96 223.37c0 21.84-16.04 40.34-37.96 46.25v153.12h-30v-153.12c-21.92-5.91-37.96-24.41-37.96-46.25h30c0 10.04 10.3 18.21 22.96 18.21s22.96-8.17 22.96-18.21c0-10.05-10.3-18.22-22.96-18.22-29.2 0-52.96-21.63-52.96-48.22 0-21.84 16.04-40.34 37.96-46.25v-16.68h30v16.68c21.92 5.91 37.96 24.41 37.96 46.25h-30c0-10.04-10.3-18.22-22.96-18.22s-22.96 8.18-22.96 18.22c0 10.05 10.3 18.22 22.96 18.22 29.2 0 52.96 21.63 52.96 48.22z" fill="#fff4b0"/><g fill="#ffe26f"><path d="m308.96 223.37c0 21.84-16.04 40.34-37.96 46.25v153.12h-15v-181.16c12.66 0 22.96-8.17 22.96-18.21 0-10.05-10.3-18.22-22.96-18.22v-30c29.2 0 52.96 21.63 52.96 48.22z"/><path d="m256 138.71v-44.71h15v16.68c21.92 5.91 37.96 24.41 37.96 46.25h-30c0-10.04-10.3-18.22-22.96-18.22z"/></g><path d="m211 422.74h90v89.26h-90z" fill="#cae8ea"/><path d="m256 422.74h45v89.26h-45z" fill="#a7d2db"/><g><path d="m141.89 392.311h50v30h-50z" fill="#cae8ea"/><path d="m320.11 392.319h50v30h-50z" fill="#a7d2db"/></g><path d="m171.89 361.89h168.22v90.85h-168.22z" fill="#eaf4f4"/><path d="m255.996 361.89h84.114v90.85h-84.114z" fill="#cae8ea"/></g></svg>