<svg id="Capa_1" enable-background="new 0 0 512 512" height="512" viewBox="0 0 512 512" width="512" xmlns="http://www.w3.org/2000/svg"><g><path d="m0 256c0 .69 0 1.37.01 2.06l11.572 14.65-8.262 24.62c3.49 21.47 9.64 42.04 18.11 61.36l16.913 5.43-2.473 22.62c10.93 18.37 24.09 35.26 39.11 50.28l122.839-52.839 58.181-128.181v-91.38l-10-15.955 10-26.665v-79.41l-10-17.44 10-25.15c-141.38 0-256 114.62-256 256z" fill="#eaf4f4"/><g fill="#00dc7b"><path d="m310.957 34.11h164.895v30h-164.895z"/><path d="m310.957 103.496h164.895v30h-164.895z"/><path d="m310.957 172.437h164.895v30h-164.895z"/></g><path d="m512 256c0 141.38-114.62 256-256 256-70.69 0-134.69-28.66-181.02-74.98l181.02-181.02z" fill="#2ad7f5"/><g fill="#cae8ea"><path d="m256 122v42.62l-220.13 222.12c-5.37-9-10.19-18.37-14.44-28.05z"/><path d="m256 0v42.59l-252.68 254.74c-2.08-12.8-3.21-25.91-3.31-39.27z"/></g><path d="m512 256c0 141.38-114.62 256-256 256v-256z" fill="#3ba9ff"/></g></svg>