<svg id="Capa_1" enable-background="new 0 0 512 512" height="512" viewBox="0 0 512 512" width="512" xmlns="http://www.w3.org/2000/svg"><g><g><path d="m241 370h30v67h-30z" fill="#eaf4f4"/></g><path d="m255.71 370h15.29v67h-15.29z" fill="#cae8ea"/><path d="m301 467c0 24.81-20.19 45-45 45h-.29c-24.68-.16-44.71-20.29-44.71-45s20.03-44.84 44.71-45h.29c24.81 0 45 20.19 45 45z" fill="#186a81"/><path d="m20 60h472v325h-472z" fill="#eaf4f4"/><path d="m255.71 60h236.29v325h-236.29z" fill="#cae8ea"/><path d="m0 0h512v90h-512z" fill="#186a81"/><g><path d="m0 355h512v30h-512z" fill="#cae8ea"/></g><path d="m418.89 135.13v78.73h-30v-27.52l-109.25 109.24-23.93-23.93-51.58-51.58-85.41 85.41-21.21-21.21 106.62-106.62 51.58 51.57 23.93 23.93 88.03-88.02h-27.41v-30z" fill="#00dc7b"/><g><path d="m85.478 125.125h67.5v30h-67.5z" fill="#cae8ea"/></g><g><path d="m359.808 290.654h67.5v30h-67.5z" fill="#b3d6e0"/></g><path d="m255.71 0h256.29v90h-256.29z" fill="#00465f"/><path d="m418.89 135.13v78.73h-30v-27.52l-109.25 109.24-23.93-23.93v-42.43l23.93 23.93 88.03-88.02h-27.41v-30z" fill="#00aa8e"/><path d="m255.71 355h256.29v30h-256.29z" fill="#b3d6e0"/><path d="m301 467c0 24.81-20.19 45-45 45h-.29v-90h.29c24.81 0 45 20.19 45 45z" fill="#00465f"/></g></svg>