<svg id="Capa_1" enable-background="new 0 0 512 512" height="512" viewBox="0 0 512 512" width="512" xmlns="http://www.w3.org/2000/svg"><g><path d="m413.53 354.33-14.52 92.67-10.18 65h-265.661l-10.179-65-14.521-92.67z" fill="#ffe26f"/><path d="m413.53 354.33-14.52 92.67-10.18 65h-133.14v-157.67z" fill="#ffc271"/><g><path d="m399.01 447-10.18 65h-265.661l-10.179-65z" fill="#ffc271"/></g><path d="m308.58 128.81c0 21.76-15.94 40.18-37.73 46.08v134.44h-30v-134.44c-21.79-5.9-37.73-24.32-37.73-46.08h30c0 9.89 10.18 17.94 22.57 18.08h.16c12.53 0 22.73-8.11 22.73-18.08 0-9.96-10.2-18.07-22.73-18.07h-.16c-28.93-.16-52.57-21.67-52.57-48.08 0-21.76 15.94-40.17 37.73-46.08v-16.58h30v16.58c21.79 5.91 37.73 24.32 37.73 46.08h-30c0-9.96-10.2-18.07-22.73-18.07h-.16c-12.39.14-22.57 8.19-22.57 18.07 0 9.89 10.18 17.94 22.57 18.08h.16c29.069 0 52.73 21.56 52.73 48.07z" fill="#00dc7b"/><path d="m308.58 128.81c0 21.76-15.94 40.18-37.73 46.08v134.44h-15.16v-162.44h.16c12.53 0 22.73-8.11 22.73-18.08 0-9.96-10.2-18.07-22.73-18.07h-.16v-30h.16c29.069 0 52.73 21.56 52.73 48.07z" fill="#00aa8e"/><path d="m255.849 44.59h-.16v-44.59h15.16v16.58c21.79 5.91 37.73 24.32 37.73 46.08h-30c.001-9.96-10.199-18.07-22.73-18.07z" fill="#00aa8e"/><g><g><g><path d="m97.46 12.456h30v85.976h-30z" fill="#eaf4f4" transform="matrix(.179 -.984 .984 .179 37.767 156.154)"/></g><g><path d="m122.415 120.789h34.648v30h-34.648z" fill="#eaf4f4" transform="matrix(.94 -.342 .342 .94 -38.016 55.984)"/></g></g><g><g><path d="m356.55 41.452h85.977v30h-85.977z" fill="#cae8ea" transform="matrix(.984 -.179 .179 .984 -3.649 72.497)"/></g><g><path d="m357.26 119.473h30v34.647h-30z" fill="#cae8ea" transform="matrix(.342 -.94 .94 .342 116.388 439.816)"/></g></g></g><path d="m328.114 196.616c-39.936 0-72.425 32.49-72.425 72.425v55.293h55.293c39.936 0 72.425-32.49 72.425-72.425v-55.293z" fill="#00767a"/><path d="m183.265 196.616h-55.292v55.293c0 39.935 32.489 72.425 72.424 72.425h55.293v-55.293c0-39.936-32.49-72.425-72.425-72.425z" fill="#00aa8e"/><path d="m77.669 314.33h356.66v80h-356.66z" fill="#186a81"/><path d="m255.69 314.33h178.64v80h-178.64z" fill="#00465f"/><path d="m399.01 447-10.18 65h-133.14v-65z" fill="#ff9e73"/></g></svg>