<svg id="Capa_1" enable-background="new 0 0 512 512" height="512" viewBox="0 0 512 512" width="512" xmlns="http://www.w3.org/2000/svg"><g><path d="m95.77 0h159.88v91.19h-159.88z" fill="#ffe26f"/><path d="m66.59 76.595h378.82v420h-378.82z" fill="#ffc271"/><path d="m255.65 76.595h189.76v420h-189.76z" fill="#ff9e73"/><g><path d="m36.65 482h438.7v30h-438.7z" fill="#fff4b0"/></g><g><path d="m36.65 61.19h438.7v30h-438.7z" fill="#fff4b0"/></g><g><path d="m475.346 231.095h-190.314l-10-30h200.314z" fill="#ffe26f"/></g><g><path d="m226.964 231.095h-190.314v-30h200.314z" fill="#fff4b0"/></g><g><path d="m475.346 372.095h-168.358l10-30h158.358z" fill="#ffe26f"/></g><g><path d="m205.009 372.095h-168.359v-30h158.359z" fill="#fff4b0"/></g><path d="m340.813 312.429c0 46.95-38.204 85.145-85.163 85.145s-85.173-38.195-85.173-85.145c0-25.164 12.974-54.492 38.568-87.17 18.313-23.391 36.44-39.875 37.205-40.565l9.399-8.503 9.39 8.503c.765.691 18.892 17.174 37.215 40.565 25.585 32.678 38.559 62.005 38.559 87.17z" fill="#186a81"/><path d="m255.65 61.19h219.7v30h-219.7z" fill="#ffe26f"/><path d="m340.813 312.429c0 46.95-38.204 85.145-85.163 85.145v-221.384l9.39 8.503c.765.691 18.892 17.174 37.215 40.565 25.584 32.679 38.558 62.006 38.558 87.171z" fill="#00465f"/><path d="m255.65 482h219.7v30h-219.7z" fill="#ffe26f"/></g></svg>