<svg id="Capa_1" enable-background="new 0 0 512 512" height="512" viewBox="0 0 512 512" width="512" xmlns="http://www.w3.org/2000/svg"><g><path d="m424.75 131.11-20 154.89 20 154.89v21.21l-49.9 49.9h-237.7l-49.9-49.9v-21.21l20-154.89-20-154.89v-21.21l41.11-41.11v-48.79h255.28v48.79l41.11 41.11z" fill="#eaf4f4"/><path d="m424.75 131.11-20 154.89 20 154.89v21.21l-49.9 49.9h-121.3v-492h130.09v48.79l41.11 41.11z" fill="#cae8ea"/><path d="m108.36 0h290.38v30h-290.38z" fill="#186a81"/><path d="m87.25 131.11h337.5v309.78h-337.5z" fill="#00aa8e"/><path d="m253.55 131.11h171.2v309.78h-171.2z" fill="#00767a"/><path d="m306.8 317.38c0 20.82-15.09 38.47-35.8 44.32v15.14h-30v-15.14c-20.71-5.85-35.8-23.5-35.8-44.32h30c0 8.24 8.18 15.28 18.35 16.27.8.08 1.62.12 2.45.12 11.27 0 20.8-7.5 20.8-16.39 0-8.88-9.53-16.38-20.8-16.38-.82 0-1.64-.02-2.45-.06-26.88-1.16-48.35-21.5-48.35-46.32 0-20.82 15.09-38.47 35.8-44.32v-15.14h25.48v14.07c23 4.42 40.32 23.09 40.32 45.39h-30c0-8.89-9.53-16.39-20.8-16.39-.83 0-1.65.04-2.45.12-10.17.99-18.35 8.03-18.35 16.27 0 8.23 8.18 15.27 18.35 16.26.8.08 1.62.12 2.45.12 28.01 0 50.8 20.81 50.8 46.38z" fill="#00dc7b"/><path d="m306.8 317.38c0 20.82-15.09 38.47-35.8 44.32v15.14h-17.45v-43.19c.8.08 1.62.12 2.45.12 11.27 0 20.8-7.5 20.8-16.39 0-8.88-9.53-16.38-20.8-16.38-.82 0-1.64-.02-2.45-.06v-30.06c.8.08 1.62.12 2.45.12 28.01 0 50.8 20.81 50.8 46.38z" fill="#00aa8e"/><path d="m256 238.23c-.83 0-1.65.04-2.45.12v-43.19h12.93v14.07c23 4.42 40.32 23.09 40.32 45.39h-30c0-8.89-9.53-16.39-20.8-16.39z" fill="#00aa8e"/><path d="m253.55 0h145.19v30h-145.19z" fill="#00465f"/></g></svg>