<svg id="Capa_1" enable-background="new 0 0 512 512" height="512" viewBox="0 0 512 512" width="512" xmlns="http://www.w3.org/2000/svg"><g><g><path d="m512 256c0 68.38-26.63 132.67-74.98 181.02h-362.04c-48.35-48.35-74.98-112.64-74.98-181.02s26.63-132.67 74.98-181.02h362.04c48.35 48.35 74.98 112.64 74.98 181.02z" fill="#ffe26f"/><path d="m512 256c0 68.38-26.63 132.67-74.98 181.02h-181.02v-362.04h181.02c48.35 48.35 74.98 112.64 74.98 181.02z" fill="#ffc271"/><g><g fill="#fff4b0"><path d="m437.02 74.98-73.54 73.54h-214.96l-73.54-73.54c48.35-48.35 112.64-74.98 181.02-74.98s132.67 26.63 181.02 74.98z"/><path d="m437.02 437.02c-48.35 48.35-112.64 74.98-181.02 74.98s-132.67-26.63-181.02-74.98l73.54-73.54h214.96z"/></g></g><g fill="#ffe26f"><path d="m363.48 363.48 73.54 73.54c-48.35 48.35-112.64 74.98-181.02 74.98v-148.52z"/><path d="m363.48 148.52h-107.48v-148.52c68.38 0 132.67 26.63 181.02 74.98z"/></g><circle cx="256" cy="256" fill="#ffc271" r="167"/><path d="m423 256c0 92.08-74.92 167-167 167v-334c92.08 0 167 74.92 167 167z" fill="#ff9e73"/></g><path d="m290.43 293.07h30c0 35.53-28.9 64.43-64.43 64.43-32.84 0-60.02-24.7-63.94-56.5h-19.76v-30h19.27v-30h-19.27v-30h19.76c3.92-31.8 31.1-56.5 63.94-56.5 35.53 0 64.43 28.9 64.43 64.43h-30c0-18.98-15.45-34.43-34.43-34.43-16.26 0-29.92 11.33-33.51 26.5h33.51v30h-34.43v30h34.43v30h-33.51c3.59 15.17 17.25 26.5 33.51 26.5 18.98 0 34.43-15.45 34.43-34.43z" fill="#fff4b0"/><g fill="#ffe26f"><path d="m290.43 293.07h30c0 35.53-28.9 64.43-64.43 64.43v-30c18.98 0 34.43-15.45 34.43-34.43z"/><path d="m256 184.5v-30c35.53 0 64.43 28.9 64.43 64.43h-30c0-18.98-15.45-34.43-34.43-34.43z"/></g></g></svg>