<svg id="Capa_1" enable-background="new 0 0 512 512" height="512" viewBox="0 0 512 512" width="512" xmlns="http://www.w3.org/2000/svg"><g><g><path d="m131 0h381v220h-381z" fill="#00aa8e"/><path d="m321.5 0h190.5v220h-190.5z" fill="#00767a"/><g><path d="m194.06 0c-1.58 38.59-27.98 70.63-63.06 79.43v-79.43z" fill="#00dc7b"/></g><g><path d="m512 140.57v79.43h-63.06c1.58-38.59 27.98-70.63 63.06-79.43z" fill="#00aa8e"/></g><g><path d="m512 0v79.43c-35.08-8.8-61.48-40.84-63.06-79.43z" fill="#00aa8e"/></g><g><path d="m217.19 95h29.919v30h-29.919z" fill="#00dc7b"/></g><g><path d="m395.891 95h29.919v30h-29.919z" fill="#00aa8e"/></g><g><path d="m194.06 220h-63.06v-79.43c35.08 8.8 61.48 40.84 63.06 79.43z" fill="#00dc7b"/></g><g><path d="m321.5 65.19c-24.77 0-44.92 20.1-44.92 44.81s20.15 44.81 44.92 44.81 44.92-20.1 44.92-44.81-20.15-44.81-44.92-44.81z" fill="#00dc7b"/></g><path d="m321.5 65.19v89.62c24.77 0 44.92-20.1 44.92-44.81s-20.15-44.81-44.92-44.81z" fill="#00aa8e"/></g><g><path d="m0 292h381v220h-381z" fill="#00aa8e"/><path d="m190.5 292h190.5v220h-190.5z" fill="#00767a"/><g><path d="m63.06 292c-1.58 38.59-27.98 70.63-63.06 79.43v-79.43z" fill="#00dc7b"/></g><g><path d="m63.06 512h-63.06v-79.43c35.08 8.8 61.48 40.84 63.06 79.43z" fill="#00dc7b"/></g><g><path d="m381 432.57v79.43h-63.06c1.58-38.59 27.98-70.63 63.06-79.43z" fill="#00aa8e"/></g><g><path d="m381 292v79.43c-35.08-8.8-61.48-40.84-63.06-79.43z" fill="#00aa8e"/></g><g><path d="m86.19 387h29.919v30h-29.919z" fill="#00dc7b"/></g><g><path d="m264.891 387h29.919v30h-29.919z" fill="#00aa8e"/></g><g><path d="m190.5 357.19c-24.77 0-44.92 20.1-44.92 44.81s20.15 44.81 44.92 44.81 44.92-20.1 44.92-44.81-20.15-44.81-44.92-44.81z" fill="#00dc7b"/></g><path d="m190.5 357.19v89.62c24.77 0 44.92-20.1 44.92-44.81s-20.15-44.81-44.92-44.81z" fill="#00aa8e"/></g><g><path d="m60 262h-30v-232h71v30h-41z" fill="#2ad7f5"/></g><g><path d="m482 482.19h-71v-30h41v-202h30z" fill="#3ba9ff"/></g></g></svg>