<svg id="Capa_1" enable-background="new 0 0 512 512" height="512" viewBox="0 0 512 512" width="512" xmlns="http://www.w3.org/2000/svg"><g><g><path d="m0 70.01h512v402h-512z" fill="#eaf4f4"/><path d="m256 70.01h256v402h-256z" fill="#cae8ea"/><g fill="#a7d2db"><path d="m256 216.302h198v30h-198z"/><path d="m256 276.01h198v30h-198z"/><path d="m256 335.717h198v30h-198z"/></g><path d="m166.86 39.99h178.28v90.04h-178.28z" fill="#186a81"/><path d="m256 39.99h89.14v90.04h-89.14z" fill="#00465f"/></g><path d="m130.398 277.117c-38.176 0-69.235 31.059-69.235 69.234v49.235h138.47v-49.235c.001-38.176-31.058-69.234-69.235-69.234z" fill="#ff668e"/><path d="m130.398 190.687c-32.389 0-58.74 26.114-58.74 58.214s26.351 58.215 58.74 58.215c32.39 0 58.741-26.115 58.741-58.215s-26.351-58.214-58.741-58.214z" fill="#ffc7a1"/></g></svg>