<svg id="Capa_1" enable-background="new 0 0 512 512" height="512" viewBox="0 0 512 512" width="512" xmlns="http://www.w3.org/2000/svg"><g><g><path d="m239.2 309.33h30v126.14h-30z" fill="#2ad7f5"/></g><g><path d="m174.582 481.234h-129.379v-185.238h30v155.238h99.379z" fill="#2ad7f5"/></g><path d="m466.797 481.234h-132.975v-30h102.975v-158.315h30z" fill="#3ba9ff"/><g><path d="m239.2 76.53h30v109.73h-30z" fill="#2ad7f5"/></g><g><path d="m466.797 202.672h-30v-141.906h-102.975v-30h132.975z" fill="#3ba9ff"/></g><path d="m254.2 76.53h15v109.73h-15z" fill="#3ba9ff"/><path d="m254.2 309.33h15v126.14h-15z" fill="#3ba9ff"/><g fill="#ffe26f"><path d="m337.08 247.8-82.88 82.72-82.87-82.72 82.87-82.73z"/><path d="m159.58 0h189.24v91.53h-189.24z"/><path d="m159.58 420.47h189.24v91.53h-189.24z"/></g><path d="m451.797 187.672c-33.196 0-60.204 26.972-60.204 60.124s27.008 60.123 60.204 60.123 60.203-26.971 60.203-60.123-27.007-60.124-60.203-60.124z" fill="#ffc271"/><path d="m60.203 187.672c-33.196 0-60.203 26.972-60.203 60.124s27.007 60.123 60.203 60.123 60.204-26.971 60.204-60.123-27.008-60.124-60.204-60.124z" fill="#ffe26f"/><path d="m254.2 0h94.62v91.53h-94.62z" fill="#ffc271"/><path d="m254.205 420.47h94.615v91.53h-94.615z" fill="#ffc271"/><path d="m337.08 247.8-82.88 82.72v-165.45z" fill="#ffc271"/></g></svg>