<svg id="Capa_1" enable-background="new 0 0 512 512" height="512" viewBox="0 0 512 512" width="512" xmlns="http://www.w3.org/2000/svg"><g><g><path d="m278.55 30h-193.905v165h30v-135h163.905z" fill="#2ad7f5"/><path d="m409.681 315.924v136h-165v30h195v-166z" fill="#3ba9ff"/></g><g><path d="m202.209 419.6v92.4h-163.52v-92.4c0-45.09 36.68-81.76 81.76-81.76s81.76 36.67 81.76 81.76z" fill="#ff668e"/><path d="m202.209 419.6v92.4h-81.76v-174.16c45.08 0 81.76 36.67 81.76 81.76z" fill="#e04496"/><path d="m188.459 300.46c0 37.15-30.51 67.38-68.01 67.38-37.51 0-68.02-30.23-68.02-67.38s30.51-67.38 68.02-67.38c37.5 0 68.01 30.23 68.01 67.38z" fill="#ffe8c8"/><path d="m105.449 409.92h30v30h-30z" fill="#e04496"/><path d="m120.449 409.92h15v30h-15z" fill="#b22d85"/><path d="m188.459 300.46c0 37.15-30.51 67.38-68.01 67.38v-134.76c37.5 0 68.01 30.23 68.01 67.38z" fill="#ffc7a1"/></g><g><path d="m473.311 186.52v92.4h-163.52v-92.4c0-45.09 36.68-81.76 81.76-81.76s81.76 36.67 81.76 81.76z" fill="#00dc7b"/><path d="m473.311 186.52v92.4h-81.76v-174.16c45.08 0 81.76 36.67 81.76 81.76z" fill="#00aa8e"/><path d="m459.561 67.38c0 37.15-30.51 67.38-68.01 67.38-37.51 0-68.02-30.23-68.02-67.38s30.51-67.38 68.02-67.38c37.5 0 68.01 30.23 68.01 67.38z" fill="#ffe8c8"/><path d="m376.551 176.84h30v30h-30z" fill="#00aa8e"/><path d="m391.551 176.84h15v30h-15z" fill="#00767a"/><path d="m459.561 67.38c0 37.15-30.51 67.38-68.01 67.38v-134.76c37.5 0 68.01 30.23 68.01 67.38z" fill="#ffc7a1"/></g></g></svg>