<svg id="Capa_1" enable-background="new 0 0 512 512" height="512" viewBox="0 0 512 512" width="512" xmlns="http://www.w3.org/2000/svg"><g><path d="m51 0h410v512h-410z" fill="#186a81"/><path d="m256 0h205v512h-205z" fill="#00465f"/><path d="m111.28 60h289.44v148h-289.44z" fill="#2ad7f5"/><path d="m256 60h144.72v148h-144.72z" fill="#3ba9ff"/><g><g><path d="m181 118h30v30h-30z" fill="#3ba9ff"/></g><g><path d="m241 118h30v30h-30z" fill="#3ba9ff"/></g><g><path d="m301 118h30v30h-30z" fill="#0081ff"/></g></g><path d="m256 118h15v30h-15z" fill="#0081ff"/><g><path d="m215.238 339.062-103.958-10v-66.938h93.958z" fill="#eaf4f4"/><path d="m205.238 462.939h-93.958v-66.939l103.958-10z" fill="#eaf4f4"/><path d="m205.24 262.12h101.52v66.94h-101.52z" fill="#cae8ea"/><path d="m306.76 329.06 10 76.94-111.52-10v-66.94z" fill="#eaf4f4"/><path d="m400.72 396-103.958 10 10-143.876h93.958z" fill="#ffc271"/><path d="m205.24 396h195.48v66.94h-195.48z" fill="#ffc271"/><path d="m111.28 329.062h93.958v66.938h-93.958z" fill="#cae8ea"/></g><path d="m256 329.06h50.76v66.94h-50.76z" fill="#cae8ea"/><path d="m256 262.12h50.76v66.94h-50.76z" fill="#a7d2db"/><path d="m256 396h144.72v66.94h-144.72z" fill="#ff9e73"/></g></svg>