<svg id="Capa_1" enable-background="new 0 0 512 512" height="512" viewBox="0 0 512 512" width="512" xmlns="http://www.w3.org/2000/svg"><g><path d="m457.67 497h-403.34l35.41-140h335.38z" fill="#ffe26f"/><path d="m457.67 497h-202.46v-140h169.91z" fill="#ffc271"/><ellipse cx="255.21" cy="226" fill="#ff668e" rx="226.07" ry="226"/><path d="m481.28 226c0 124.82-101.22 226-226.07 226v-106.37c65.98 0 119.66-53.67 119.66-119.63s-53.68-119.63-119.66-119.63v-106.37c124.85 0 226.07 101.18 226.07 226z" fill="#cae8ea"/><path d="m481.28 226c0 124.82-101.22 226-226.07 226v-452c124.85 0 226.07 101.18 226.07 226z" fill="#e04496"/><path d="m389.77 226c0 74.3-60.25 134.52-134.56 134.52-74.32 0-134.57-60.22-134.57-134.52s60.25-134.52 134.57-134.52c74.31 0 134.56 60.22 134.56 134.52z" fill="#ffc271"/><path d="m389.77 226c0 74.3-60.25 134.52-134.56 134.52v-269.04c74.31 0 134.56 60.22 134.56 134.52z" fill="#ff9e73"/><path d="m305.03 256.53c0 20.34-14.66 37.6-34.82 43.43v14.42h-30v-14.42c-20.17-5.83-34.83-23.09-34.83-43.43h30c0 8.42 9.08 15.54 19.83 15.54 10.74 0 19.82-7.12 19.82-15.54s-9.08-15.53-19.82-15.53c-27.48 0-49.83-20.43-49.83-45.53 0-20.34 14.66-37.6 34.83-43.43v-14.42h30v14.42c20.16 5.83 34.82 23.09 34.82 43.43h-30c0-8.42-9.08-15.54-19.82-15.54-10.75 0-19.83 7.12-19.83 15.54s9.08 15.53 19.83 15.53c27.47 0 49.82 20.43 49.82 45.53z" fill="#fff4b0"/><g fill="#ffe26f"><path d="m255.21 76.37c-82.53 0-149.67 67.13-149.67 149.63s67.14 149.63 149.67 149.63c82.52 0 149.66-67.13 149.66-149.63s-67.14-149.63-149.66-149.63zm0 269.26c-65.99 0-119.67-53.67-119.67-119.63s53.68-119.63 119.67-119.63c65.98 0 119.66 53.67 119.66 119.63s-53.68 119.63-119.66 119.63z"/><path d="m305.03 256.53c0 20.34-14.66 37.6-34.82 43.43v14.42h-15v-42.31c10.74 0 19.82-7.12 19.82-15.54s-9.08-15.53-19.82-15.53v-30c27.47 0 49.82 20.43 49.82 45.53z"/><path d="m255.21 179.93v-42.31h15v14.42c20.16 5.83 34.82 23.09 34.82 43.43h-30c0-8.42-9.08-15.54-19.82-15.54z"/></g><path d="m404.87 226c0 82.5-67.14 149.63-149.66 149.63v-30c65.98 0 119.66-53.67 119.66-119.63s-53.68-119.63-119.66-119.63v-30c82.52 0 149.66 67.13 149.66 149.63z" fill="#ffc271"/><path d="m0 482h512v30h-512z" fill="#186a81"/><path d="m512 37.592h-37.506v-37.592h-30v46.357l-119.859 119.267 21.161 21.266 119.89-119.298h46.314z" fill="#00465f"/><path d="m255.21 482h256.79v30h-256.79z" fill="#00465f"/></g></svg>