<svg id="Capa_1" enable-background="new 0 0 512 512" height="512" viewBox="0 0 512 512" width="512" xmlns="http://www.w3.org/2000/svg"><g><path d="m0 343.47c0 92.93 75.59 168.53 168.52 168.53l29.38-175.801-29.38-161.259c-92.93 0-168.52 75.6-168.52 168.53z" fill="#ffe26f"/><path d="m337.03 343.47c0 92.93-75.59 168.53-168.51 168.53v-337.06c92.92 0 168.51 75.6 168.51 168.53z" fill="#ffc271"/><g><g><path d="m217.04 332.58c4.18-6.9 6.59-14.98 6.59-23.62v-.17c0-23.61-17.97-43.09-40.95-45.5v-14.67h-30v14.42h-37.81v30h13.08v100.86h-13.08v30h37.81v14.42h30v-14.42h8.73c25.23 0 45.75-20.52 45.75-45.75v-7.69c0-15.74-7.99-29.64-20.12-37.88zm-59.09-39.54h19.93c8.68 0 15.75 7.06 15.75 15.75v.17c0 8.68-7.07 15.75-15.75 15.75h-19.93zm49.21 85.11c0 8.69-7.06 15.75-15.75 15.75h-33.46v-39.19h33.46c8.69 0 15.75 7.06 15.75 15.75z" fill="#fff4b0"/></g></g><path d="m400.21.01c-60.89.39-110.3 50.05-110.3 111.04 0 60.98 49.41 110.65 110.3 111.04.25.01.49.01.74.01l17.45-111.05-17.45-111.05c-.25 0-.49 0-.74.01z" fill="#eaf4f4"/><path d="m512 111.05c0 61.23-49.82 111.05-111.05 111.05-.25 0-.49 0-.74-.01v-222.08c.25-.01.49-.01.74-.01 61.23 0 111.05 49.81 111.05 111.05z" fill="#cae8ea"/><g><path d="m265.87 29.99v30h-205.82v114.96h-30v-144.96z" fill="#2ad7f5"/></g><g><path d="m385.95 96.05h30v30h-30z" fill="#cae8ea"/></g><path d="m237.16 370.46v7.69c0 25.23-20.52 45.75-45.75 45.75h-8.73v14.42h-14.17v-44.42h22.9c8.69 0 15.75-7.06 15.75-15.75v-7.69c0-8.69-7.06-15.75-15.75-15.75h-22.9v-30h9.37c8.68 0 15.75-7.07 15.75-15.75v-.17c0-8.69-7.07-15.75-15.75-15.75h-9.37v-44.42h14.17v14.67c22.98 2.41 40.95 21.89 40.95 45.5v.17c0 8.64-2.41 16.72-6.59 23.62 12.13 8.24 20.12 22.14 20.12 37.88z" fill="#ffe26f"/><path d="m400.21 96.05h15.74v30h-15.74z" fill="#a7d2db"/><path d="m451.284 452.01h-113.859v30h143.859v-234.928h-30z" fill="#3ba9ff"/></g></svg>