<svg id="Capa_1" enable-background="new 0 0 512 512" height="512" viewBox="0 0 512 512" width="512" xmlns="http://www.w3.org/2000/svg"><g><path d="m476.48 126.79v385.21h-352.91v-80.13l86.5-97.35 184.59-207.73z" fill="#cae8ea"/><path d="m476.48 126.79v385.21h-266.41v-177.48l184.59-207.73z" fill="#a7d2db"/><path d="m416.52 96.79v355.66h-381v-452.45h284.22z" fill="#eaf4f4"/><path d="m416.52 96.79v355.66h-206.45v-452.45h109.67z" fill="#cae8ea"/><path d="m416.523 126.787h-126.786v-126.787h30l50.541 50.542 46.245 46.245z" fill="#a7d2db"/><path d="m107.04 75h128.86v30h-128.86z" fill="#cae8ea"/><path d="m107.041 135h74.859v30h-74.859z" fill="#cae8ea"/><path d="m115.07 274.469h30v104.441h-30z" fill="#ff668e"/><path d="m180.07 234.469h30v144.441h-30z" fill="#00dc7b"/><path d="m246.07 174.469h30v204.441h-30z" fill="#e04496"/><path d="m311.07 194.469h30v184.441h-30z" fill="#00aa8e"/><path d="m210.07 75h25.83v30h-25.83z" fill="#a7d2db"/></g></svg>