<svg id="Capa_1" enable-background="new 0 0 512 512" height="512" viewBox="0 0 512 512" width="512" xmlns="http://www.w3.org/2000/svg"><g><path d="m29.83 43h390v90h-390z" fill="#00dc7b"/><path d="m222.95 43h196.88v90h-196.88z" fill="#00aa8e"/><path d="m0 103v366h222.95l40.221-183-40.221-183z" fill="#ffe26f"/><path d="m222.95 103h226.72v366h-226.72z" fill="#ffc271"/><path d="m277.8 319.22c0 21.84-16.05 40.33-37.97 46.23v16.7h-30v-16.7c-21.91-5.9-37.96-24.39-37.96-46.23h30c0 9.54 9.29 17.39 21.08 18.15.62.04 1.25.06 1.88.06 12.67 0 22.97-8.17 22.97-18.21 0-10.05-10.3-18.22-22.97-18.22-.63 0-1.26-.01-1.88-.04-28.34-.9-51.08-22.16-51.08-48.18 0-21.84 16.05-40.33 37.96-46.23v-16.7h30v16.7c21.92 5.9 37.97 24.39 37.97 46.23h-30c0-10.04-10.3-18.21-22.97-18.21-.63 0-1.26.02-1.88.06-11.79.76-21.08 8.61-21.08 18.15 0 9.55 9.29 17.4 21.08 18.16.62.04 1.25.06 1.88.06 29.21 0 52.97 21.63 52.97 48.22z" fill="#fff4b0"/><path d="m277.8 319.22c0 21.84-16.05 40.33-37.97 46.23v16.7h-16.88v-44.78c.62.04 1.25.06 1.88.06 12.67 0 22.97-8.17 22.97-18.21 0-10.05-10.3-18.22-22.97-18.22-.63 0-1.26-.01-1.88-.04v-30.02c.62.04 1.25.06 1.88.06 29.21 0 52.97 21.63 52.97 48.22z" fill="#ffe26f"/><path d="m224.83 234.57c-.63 0-1.26.02-1.88.06v-44.78h16.88v16.7c21.92 5.9 37.97 24.39 37.97 46.23h-30c0-10.04-10.3-18.21-22.97-18.21z" fill="#ffe26f"/><g><path d="m387.34 222.36h124.66v124.66h-124.66z" fill="#fff4b0"/><path d="m449.67 222.36h62.33v124.66h-62.33z" fill="#ffe26f"/><path d="m434.087 269.107h31.165v31.165h-31.165z" fill="#ffe26f"/><path d="m449.67 269.107h15.583v31.165h-15.583z" fill="#ffc271"/></g></g></svg>