<svg id="Capa_1" enable-background="new 0 0 512 512" height="512" viewBox="0 0 512 512" width="512" xmlns="http://www.w3.org/2000/svg"><g><g><path d="m426.5 0v512h-341v-512h66.743l103.757 30 103.757-30z" fill="#2ad7f5"/><path d="m426.5 0v512h-170.5v-482l103.757-30z" fill="#3ba9ff"/><path d="m197.312 422h117.377v30h-117.377z" fill="#3ba9ff"/><path d="m359.757 0-9.947 59h-187.62l-9.947-59z" fill="#186a81"/><path d="m256 422h58.688v30h-58.688z" fill="#0081ff"/><path d="m359.757 0-9.947 59h-93.81v-59z" fill="#00465f"/></g><path d="m308.96 288.38c0 21.85-16.04 40.33-37.96 46.24v16.7h-30v-16.7c-21.92-5.91-37.96-24.39-37.96-46.24h30c0 10.05 10.3 18.22 22.96 18.22s22.96-8.17 22.96-18.22c0-10.04-10.3-18.21-22.96-18.21-29.2 0-52.96-21.63-52.96-48.22 0-21.84 16.04-40.33 37.96-46.24v-16.69h30v16.69c21.92 5.91 37.96 24.4 37.96 46.24h-30c0-10.05-10.3-18.22-22.96-18.22s-22.96 8.17-22.96 18.22c0 10.04 10.3 18.22 22.96 18.22 29.2 0 52.96 21.63 52.96 48.21z" fill="#fff"/><g fill="#eaf4f4"><path d="m308.96 288.38c0 21.85-16.04 40.33-37.96 46.24v16.7h-15v-44.72c12.66 0 22.96-8.17 22.96-18.22 0-10.04-10.3-18.21-22.96-18.21v-30c29.2 0 52.96 21.63 52.96 48.21z"/><path d="m256 203.73v-44.71h15v16.69c21.92 5.91 37.96 24.4 37.96 46.24h-30c0-10.05-10.3-18.22-22.96-18.22z"/></g></g></svg>