<svg id="Capa_1" enable-background="new 0 0 512 512" height="512" viewBox="0 0 512 512" width="512" xmlns="http://www.w3.org/2000/svg"><g><path d="m441 379.369v132.551h-109.324l-75.666-19.997h-.01l-76.666 19.997h-108.334v-132.551c0-43.724 26.049-81.479 63.437-98.536l121.563-.22 120.603-.21c37.898 16.848 64.397 54.872 64.397 98.966z" fill="#186a81"/><path d="m441 379.369v132.551h-109.324l-75.666-19.997h-.01v-211.31l120.603-.21c37.898 16.848 64.397 54.872 64.397 98.966z" fill="#00465f"/><path d="m361.874 275.114c-1.27 22.607-9.479 141.62-46.247 236.806h-120.244c-36.628-94.817-44.918-213.28-46.227-236.536 9.529-2.75 19.589-4.229 29.988-4.229h153.712c10.049-.001 19.779 1.379 29.018 3.959z" fill="#eaf4f4"/><path d="m361.874 275.114c-1.27 22.607-9.479 141.62-46.247 236.806h-59.627v-240.766h76.856c10.049 0 19.779 1.38 29.018 3.96z" fill="#cae8ea"/><path d="m299.518 512h-88.026l19.699-141.52 24.809-19.997 23.209 19.997z" fill="#e04496"/><path d="m299.518 512h-43.518v-161.517l23.209 19.997z" fill="#b22d85"/><path d="m305.837 283.443-26.628 87.037h-48.018l-26.308-87.037z" fill="#ff668e"/><path d="m305.837 283.443-26.628 87.037h-23.209v-87.037z" fill="#e04496"/><g><path d="m211.492 511.92h-32.158c-33.948-91.157-42.918-199.452-44.898-231.087 4.73-2.16 9.65-3.979 14.719-5.449 4.82-1.39 9.779-2.46 14.849-3.17" fill="#00465f"/><path d="m376.603 280.403c-1.93 31.065-10.829 139.94-44.927 231.517h-32.158c39.118-97.236 46.737-225.108 47.487-239.846 5.08.67 10.039 1.69 14.869 3.04 5.07 1.41 9.99 3.189 14.729 5.289z" fill="#002c3c"/></g><g><path d="m362.944 148.949v58.172c0 58.952-47.977 106.905-106.944 106.905-58.977 0-106.954-47.953-106.954-106.905v-102.806l106.954 22.317z" fill="#ffe8c8"/><path d="m362.944 148.949v58.172c0 58.952-47.977 106.905-106.944 106.905v-187.394z" fill="#ffc7a1"/><path d="m362.944 92.357v56.592h-155.231c-50.937 0-92.375-41.434-92.375-92.357v-56.592h155.242c50.926 0 92.364 41.434 92.364 92.357z" fill="#ffc271"/><path d="m362.944 148.949h-106.944v-148.949h14.579c50.927 0 92.365 41.434 92.365 92.357z" fill="#ff9e73"/></g></g></svg>