<svg id="Capa_1" enable-background="new 0 0 512 512" height="512" viewBox="0 0 512 512" width="512" xmlns="http://www.w3.org/2000/svg"><g><path d="m0 0h512v473.14h-512z" fill="#2ad7f5"/><path d="m256 0h256v473.14h-256z" fill="#3ba9ff"/><path d="m86.42 62.43h339.16v137.46h-339.16z" fill="#186a81"/><path d="m256 62.43h169.58v137.46h-169.58z" fill="#00465f"/><path d="m145.33 122.78h221.34v389.22h-221.34z" fill="#00aa8e"/><path d="m256 122.78h110.67v389.22h-110.67z" fill="#00767a"/><g><path d="m366.67 441.68v70.32h-72.04l.19-1.23c.67-38.21 32.64-69.09 71.85-69.09z" fill="#00aa8e"/><path d="m217.19 512h-71.86v-70.32c39.63 0 71.86 31.54 71.86 70.32z" fill="#00dc7b"/><path d="m366.67 122.78v70.26c-38.14-1.67-68.63-32.55-68.63-70.26z" fill="#00aa8e"/><path d="m217.19 122.78c0 38.78-32.23 70.32-71.86 70.32v-70.32z" fill="#00dc7b"/></g><g fill="#00dc7b"><path d="m241 210.64h30v30.62h-30z"/><path d="m241 393.52h30v30.62h-30z"/><ellipse cx="256" cy="317.39" rx="45.02" ry="45.62"/></g><g fill="#00aa8e"><path d="m256 210.64h15v30.62h-15z"/><path d="m256 393.52h15v30.62h-15z"/><path d="m301.02 317.39c0 25.16-20.2 45.62-45.02 45.62v-91.24c24.82 0 45.02 20.47 45.02 45.62z"/></g></g></svg>