<svg id="Capa_1" enable-background="new 0 0 512 512" height="512" viewBox="0 0 512 512" width="512" xmlns="http://www.w3.org/2000/svg"><g><g><path d="m512 256c0 68.38-26.63 132.67-74.98 181.02h-362.04c-48.35-48.35-74.98-112.64-74.98-181.02s26.63-132.67 74.98-181.02h362.04c48.35 48.35 74.98 112.64 74.98 181.02z" fill="#ffe26f"/><path d="m512 256c0 68.38-26.63 132.67-74.98 181.02h-181.02v-362.04h181.02c48.35 48.35 74.98 112.64 74.98 181.02z" fill="#ffc271"/><g><g fill="#fff4b0"><path d="m437.02 74.98-73.54 73.54h-214.96l-73.54-73.54c48.35-48.35 112.64-74.98 181.02-74.98s132.67 26.63 181.02 74.98z"/><path d="m437.02 437.02c-48.35 48.35-112.64 74.98-181.02 74.98s-132.67-26.63-181.02-74.98l73.54-73.54h214.96z"/></g></g><g fill="#ffe26f"><path d="m363.48 363.48 73.54 73.54c-48.35 48.35-112.64 74.98-181.02 74.98v-148.52z"/><path d="m363.48 148.52h-107.48v-148.52c68.38 0 132.67 26.63 181.02 74.98z"/></g><circle cx="256" cy="256" fill="#ffc271" r="167"/><path d="m423 256c0 92.08-74.92 167-167 167v-334c92.08 0 167 74.92 167 167z" fill="#ff9e73"/></g><path d="m274.04 244.3h26.51v30h-29.55v75.68h-30v-75.68h-29.55v-30h26.51l-49.51-63.91 23.72-18.37 43.83 56.59 43.83-56.59 23.72 18.37z" fill="#fff4b0"/><path d="m274.04 244.3h26.51v30h-29.55v75.68h-15v-131.37l43.83-56.59 23.72 18.37z" fill="#ffe26f"/></g></svg>