<svg id="Capa_1" enable-background="new 0 0 512 512" height="512" viewBox="0 0 512 512" width="512" xmlns="http://www.w3.org/2000/svg"><g><g><g><path d="m256.16 512h-256.16l32.25-204.514h95.83l50.203-19.996 45.627 19.996z" fill="#ffe26f"/><path d="m256.16 512h-128.08v-204.514h95.83z" fill="#ffc271"/><path d="m113.08 394.746h30v29.993h-30z" fill="#ffc271"/><path d="m128.08 394.746h15v29.993h-15z" fill="#ff9e73"/></g><g><path d="m512 512h-256.16l32.25-204.514 43.832-19.996 51.998 19.996h95.83z" fill="#ffe26f"/><path d="m512 512h-128.08v-204.514h95.83z" fill="#ffc271"/><path d="m368.92 394.746h30v29.993h-30z" fill="#ffc271"/><path d="m383.92 394.746h15v29.993h-15z" fill="#ff9e73"/></g><g><path d="m384.243 307.479h-256.159l32.25-204.514h191.659z" fill="#ffe26f"/><path d="m384.243 307.479h-128.079v-204.514h95.829z" fill="#ffc271"/><path d="m241.164 190.225h30v29.993h-30z" fill="#ffc271"/><path d="m256.164 190.225h15v29.993h-15z" fill="#ff9e73"/></g><g><path d="m241.15 0h30v71.139h-30z" fill="#eaf4f4"/><path d="m50.651 27.88h29.998v114.206h-29.998z" fill="#eaf4f4" transform="matrix(.887 -.461 .461 .887 -31.788 39.841)"/><path d="m389.547 69.984h114.206v29.998h-114.206z" fill="#cae8ea" transform="matrix(.461 -.887 .887 .461 165.304 442.143)"/></g></g><path d="m256.16 0h14.99v71.139h-14.99z" fill="#cae8ea"/></g></svg>